HIERARCHY
ROOT Hips
{
    OFFSET 0.000000 0.000000 0.000000
    CHANNELS 6 Xposition Yposition Zposition Zrotation Xrotation Yrotation
    JOINT Spine
    {
        OFFSET -0.000000 14.517291 0.000000
        CHANNELS 3 Zrotation Xrotation Yrotation
        JOINT Spine1
        {
            OFFSET -0.000000 37.558300 0.000000
            CHANNELS 3 Zrotation Xrotation Yrotation
            JOINT Neck
            {
                OFFSET -0.000000 37.404057 3.400369
                CHANNELS 3 Zrotation Xrotation Yrotation
                JOINT Head
                {
                    OFFSET -0.000000 24.785618 -3.540803
                    CHANNELS 3 Zrotation Xrotation Yrotation
                    End Site
                    {
                        OFFSET -0.000000 35.408028 0.000000
                    }
                }
            }
            JOINT LeftShoulder
            {
                OFFSET 6.992933 33.973492 -0.192664
                CHANNELS 3 Zrotation Xrotation Yrotation
                JOINT LeftArm
                {
                    OFFSET 21.527611 0.000000 0.000000
                    CHANNELS 3 Zrotation Xrotation Yrotation
                    JOINT LeftForeArm
                    {
                        OFFSET 56.353916 0.000000 0.000000
                        CHANNELS 3 Zrotation Xrotation Yrotation
                        JOINT LeftHand
                        {
                            OFFSET 47.774071 0.000000 0.000000
                            CHANNELS 3 Zrotation Xrotation Yrotation
                            End Site
                            {
                                OFFSET 26.556021 0.000000 0.000000
                            }
                        }
                    }
                }
            }
            JOINT RightShoulder
            {
                OFFSET -7.065357 33.973492 -0.192664
                CHANNELS 3 Zrotation Xrotation Yrotation
                JOINT RightArm
                {
                    OFFSET -21.527611 0.000000 0.000000
                    CHANNELS 3 Zrotation Xrotation Yrotation
                    JOINT RightForeArm
                    {
                        OFFSET -56.353916 0.000000 0.000000
                        CHANNELS 3 Zrotation Xrotation Yrotation
                        JOINT RightHand
                        {
                            OFFSET -47.774071 0.000000 0.000000
                            CHANNELS 3 Zrotation Xrotation Yrotation
                            End Site
                            {
                                OFFSET -26.556021 0.000000 0.000000
                            }
                        }
                    }
                }
            }
        }
    }
    JOINT LeftUpLeg
    {
        OFFSET 17.704014 0.000000 0.000000
        CHANNELS 3 Zrotation Xrotation Yrotation
        JOINT LeftLeg
        {
            OFFSET -0.000000 -81.181816 0.000000
            CHANNELS 3 Zrotation Xrotation Yrotation
            JOINT LeftFoot
            {
                OFFSET -0.000000 -62.821102 0.000000
                CHANNELS 3 Zrotation Xrotation Yrotation
                JOINT LeftToeBase
                {
                    OFFSET -0.000000 -11.507608 26.556021
                    CHANNELS 3 Zrotation Xrotation Yrotation
                    End Site
                    {
                        OFFSET -0.000000 0.000000 7.081605
                    }
                }
            }
        }
    }
    JOINT RightUpLeg
    {
        OFFSET -17.704014 0.000000 0.000000
        CHANNELS 3 Zrotation Xrotation Yrotation
        JOINT RightLeg
        {
            OFFSET -0.000000 -81.181816 0.000000
            CHANNELS 3 Zrotation Xrotation Yrotation
            JOINT RightFoot
            {
                OFFSET -0.000000 -62.821102 0.000000
                CHANNELS 3 Zrotation Xrotation Yrotation
                JOINT RightToeBase
                {
                    OFFSET -0.000000 -11.507608 26.556021
                    CHANNELS 3 Zrotation Xrotation Yrotation
                    End Site
                    {
                        OFFSET -0.000000 0.000000 7.081605
                    }
                }
            }
        }
    }
}
MOTION
Frames:    5
Frame Time:    0.008333
-7.590315    157.783157    -84.184265    -4.145545    -0.291075    41.326027    -0.872693    0.542698    -3.075956    -6.787272    -0.996067    -1.084018    11.792054    -5.942418    -6.779199    9.436487    3.522059    -8.389486    10.444776    3.673398    -24.873707    -23.699875    18.405148    -72.012436    -14.276299    -5.930083    -83.501038    15.130914    -19.231184    -6.014274    -14.131784    -8.130618    -2.193019    24.004118    -27.735615    67.230331    -6.954669    -7.908572    43.906605    -12.111468    -8.300785    29.515108    17.436050    -6.441722    2.243862    -12.716599    31.034292    -18.329281    1.598108    -24.196543    39.747879    0.000000    0.000000    0.000000    -16.047806    -23.990927    -22.692543    10.861293    23.295498    -14.708219    2.013156    8.212979    -7.570948    0.000000    0.000000    0.000000    
-7.588443    158.111221    -84.202400    -4.168155    -0.366673    41.377560    -0.875626    0.477361    -3.118157    -6.782628    -0.976535    -1.096765    11.789217    -5.915039    -6.800217    9.474996    3.572955    -8.407892    10.455530    3.680588    -24.877789    -23.712418    18.368259    -71.990074    -14.397374    -5.832731    -83.509109    15.400667    -19.263905    -6.051711    -14.112446    -8.138927    -2.202251    23.899794    -27.649981    67.159462    -7.029837    -8.011517    43.815338    -12.048157    -8.354584    29.437422    17.348259    -6.040166    2.200807    -12.358431    30.176579    -18.585703    1.375619    -23.826078    39.797474    0.000000    0.000000    0.000000    -15.663874    -23.623896    -22.533051    10.487551    22.506920    -14.465851    2.207694    8.641781    -7.846643    0.000000    0.000000    0.000000    
-7.605246    158.404724    -84.241035    -4.225966    -0.402155    41.422279    -0.900255    0.377812    -3.141567    -6.721241    -0.970143    -1.103471    11.831028    -5.911683    -6.808935    9.376223    3.631234    -8.440894    10.458979    3.691357    -24.917990    -23.709770    18.365105    -71.973724    -14.413750    -5.850147    -83.557098    15.484616    -19.296177    -5.948600    -14.110977    -8.097925    -2.226881    23.887117    -27.705387    67.189636    -7.008207    -7.984875    43.691883    -12.056400    -8.350579    29.464806    17.263725    -5.728660    2.208439    -12.006399    29.386591    -18.713957    1.126201    -23.474009    39.717117    0.000000    0.000000    0.000000    -15.286425    -23.331615    -22.376923    10.100061    21.741570    -14.294889    2.425251    9.033778    -8.040354    0.000000    0.000000    0.000000    
-7.604517    158.690018    -84.274345    -4.278123    -0.458988    41.481289    -0.891250    0.303718    -3.196928    -6.673370    -0.976677    -1.121709    11.805457    -5.940096    -6.815754    9.357018    3.738805    -8.456648    10.431547    3.700849    -24.901913    -23.735903    18.323524    -72.042999    -13.477191    -5.407233    -83.440842    15.515441    -17.859968    -4.577031    -14.149299    -8.081861    -2.256825    23.944162    -27.740477    67.252563    -6.972416    -7.927976    43.572929    -12.036803    -8.315343    29.502363    17.190634    -5.391588    2.211313    -11.672277    28.573662    -18.803446    0.883446    -23.119013    39.603901    0.000000    0.000000    0.000000    -14.915505    -23.011623    -22.182055    9.756615    20.967932    -14.282722    2.600306    9.444724    -8.134545    0.000000    0.000000    0.000000    
-7.617318    158.949768    -84.319801    -4.337008    -0.498304    41.538425    -0.885751    0.231301    -3.240294    -6.641090    -0.992770    -1.136630    11.792853    -5.931643    -6.822675    9.329653    3.777395    -8.466555    10.427135    3.699875    -24.898293    -23.696375    18.362091    -72.013832    -13.553708    -5.428782    -83.480293    15.676624    -18.030554    -5.103886    -14.194586    -8.149515    -2.253148    23.871284    -27.681131    67.149445    -6.969606    -7.996388    43.499004    -11.992300    -8.375059    29.473856    17.110977    -5.123657    2.200650    -11.281426    27.771763    -18.863890    0.497347    -22.748850    39.364994    0.000000    0.000000    0.000000    -14.556384    -22.734762    -21.992247    9.391649    20.232536    -14.265936    2.791589    9.854913    -8.190546    0.000000    0.000000    0.000000    
